<svg width="11" height="21" viewBox="0 0 11 21" fill="none" xmlns="http://www.w3.org/2000/svg">
<path fill-rule="evenodd" clip-rule="evenodd" d="M2.5176 10.4087V20.45C2.5176 20.6132 2.64472 20.6949 2.77184 20.6949H6.62777C6.79726 20.6949 6.882 20.5724 6.882 20.45V10.2454H9.72099C9.84811 10.2454 9.97522 10.1229 9.97522 10.0005L10.2295 6.93911C10.2295 6.77584 10.1023 6.65338 9.97522 6.65338H6.92438V4.49001C6.92438 3.95937 7.34811 3.55119 7.89895 3.55119H10.06C10.2295 3.55119 10.3142 3.42874 10.3142 3.30628V0.24491C10.3142 0.0816367 10.1871 0 10.06 0H6.4159C4.25489 0 2.5176 1.67355 2.5176 3.75528V6.73502H0.568446C0.398955 6.73502 0.314209 6.85747 0.314209 6.97993V9.95966C0.314209 10.1229 0.441328 10.2046 0.568446 10.2046H2.5176V10.4087Z" fill="white"/>
</svg>
