<svg width="9" height="17" viewBox="0 0 9 17" fill="none" xmlns="http://www.w3.org/2000/svg">
<path fill-rule="evenodd" clip-rule="evenodd" d="M2.07692 8.55029V16.7988C2.07692 16.9329 2.17862 17 2.28031 17H5.36506C5.50065 17 5.56845 16.8994 5.56845 16.7988V8.41617H7.83963C7.94133 8.41617 8.04302 8.31558 8.04302 8.21499L8.24641 5.7002C8.24641 5.56607 8.14472 5.46548 8.04302 5.46548H5.60234V3.68836C5.60234 3.25247 5.94133 2.91716 6.38201 2.91716H8.11082C8.24641 2.91716 8.31421 2.81657 8.31421 2.71598V0.201184C8.31421 0.0670613 8.21251 0 8.11082 0H5.19557C3.46675 0 2.07692 1.37475 2.07692 3.08481V5.53254H0.517599C0.382006 5.53254 0.314209 5.63314 0.314209 5.73373V8.18146C0.314209 8.31558 0.415904 8.38264 0.517599 8.38264H2.07692V8.55029Z" fill="#2B98D0"/>
</svg>
