<svg width="17" height="16" viewBox="0 0 17 16" fill="none" xmlns="http://www.w3.org/2000/svg">
<g clip-path="url(#clip0_35_126)">
<path d="M3.94451 5.23389H0.650391V15.7677H3.94451V5.23389Z" fill="#2B98D0"/>
<path d="M2.26379 3.90876C3.33942 3.90876 4.21337 3.04751 4.21337 1.9875C4.21337 0.927502 3.33942 0 2.26379 0C1.18816 0 0.314209 0.861252 0.314209 1.92125C0.314209 2.98126 1.18816 3.90876 2.26379 3.90876Z" fill="#2B98D0"/>
<path d="M9.18823 10.2688C9.18823 8.81126 9.8605 7.88376 11.205 7.88376C12.4151 7.88376 13.0202 8.74501 13.0202 10.2688C13.0202 11.7925 13.0202 15.7675 13.0202 15.7675H16.3143C16.3143 15.7675 16.3143 11.925 16.3143 9.14251C16.3143 6.36 14.7008 4.96875 12.4151 4.96875C10.1294 4.96875 9.18823 6.69125 9.18823 6.69125V5.23375H6.02856V15.7675H9.18823C9.18823 15.7675 9.18823 11.8588 9.18823 10.2688Z" fill="#2B98D0"/>
</g>
<defs>
<clipPath id="clip0_35_126">
<rect width="16" height="15.7675" fill="white" transform="translate(0.314209)"/>
</clipPath>
</defs>
</svg>
