<svg width="17" height="17" viewBox="0 0 17 17" fill="none" xmlns="http://www.w3.org/2000/svg">
<g clip-path="url(#clip0_35_81)">
<path d="M3.94451 6.11499H0.650391V16.6488H3.94451V6.11499Z" fill="white"/>
<path d="M2.26379 4.78998C3.33942 4.78998 4.21337 3.92873 4.21337 2.86873C4.21337 1.80873 3.33942 0.881226 2.26379 0.881226C1.18816 0.881226 0.314209 1.74248 0.314209 2.80248C0.314209 3.86248 1.18816 4.78998 2.26379 4.78998Z" fill="white"/>
<path d="M9.18823 11.15C9.18823 9.6925 9.8605 8.765 11.205 8.765C12.4151 8.765 13.0202 9.62625 13.0202 11.15C13.0202 12.6738 13.0202 16.6488 13.0202 16.6488H16.3143C16.3143 16.6488 16.3143 12.8063 16.3143 10.0238C16.3143 7.24124 14.7008 5.84999 12.4151 5.84999C10.1294 5.84999 9.18823 7.57249 9.18823 7.57249V6.11499H6.02856V16.6488H9.18823C9.18823 16.6488 9.18823 12.74 9.18823 11.15Z" fill="white"/>
</g>
<defs>
<clipPath id="clip0_35_81">
<rect width="16" height="15.7675" fill="white" transform="translate(0.314209 0.881226)"/>
</clipPath>
</defs>
</svg>
