<svg width="22" height="18" viewBox="0 0 22 18" fill="none" xmlns="http://www.w3.org/2000/svg">
<path d="M21.6514 2.44356C20.9581 2.74248 20.2214 2.91328 19.4848 3.04139C19.8315 2.99869 20.3514 2.35816 20.5681 2.10194C20.8714 1.71762 21.1314 1.2906 21.3047 0.820877C21.3047 0.778175 21.3481 0.735473 21.3047 0.692771C21.2614 0.692771 21.2181 0.692771 21.1747 0.692771C20.3514 1.11979 19.5281 1.41871 18.6182 1.67492C18.5315 1.67492 18.4882 1.67492 18.4448 1.63222C18.3582 1.54681 18.3148 1.46141 18.2282 1.41871C17.8382 1.11979 17.4482 0.863579 16.9716 0.650068C16.3649 0.393855 15.7149 0.308451 15.065 0.351153C14.415 0.393856 13.8083 0.564664 13.245 0.863579C12.6817 1.16249 12.1617 1.54681 11.7717 2.05924C11.3384 2.57167 11.0351 3.1695 10.9051 3.76733C10.7751 4.36516 10.7751 4.96299 10.8618 5.60352C10.8618 5.68893 10.8618 5.73163 10.7751 5.68893C7.26524 5.1765 4.31868 3.93814 1.93543 1.2479C1.84877 1.11979 1.76211 1.11979 1.67544 1.2479C0.63548 2.78518 1.15546 5.2619 2.45542 6.45756C2.62874 6.62837 2.80207 6.79918 3.01873 6.92729C2.93206 6.92729 2.06543 6.84188 1.32879 6.45756C1.24213 6.37216 1.15546 6.41486 1.15546 6.54297C1.15546 6.71378 1.15546 6.84189 1.19879 7.0554C1.41545 8.59267 2.49875 10.0445 3.97203 10.5997C4.14535 10.6851 4.36201 10.7278 4.53534 10.7705C4.18869 10.8559 3.84203 10.8986 2.8454 10.8132C2.71541 10.7705 2.67207 10.8559 2.7154 10.984C3.45205 12.9483 5.05532 13.5461 6.22528 13.8877C6.39861 13.9304 6.5286 13.9304 6.70193 13.9731C6.70193 13.9731 6.70193 13.9731 6.6586 14.0159C6.26861 14.6137 4.88199 15.0407 4.27535 15.2542C3.10539 15.6385 1.84877 15.852 0.63548 15.7239C0.418821 15.6812 0.418821 15.6812 0.332158 15.7239C0.288826 15.7666 0.332157 15.8093 0.375489 15.852C0.63548 16.0229 0.895471 16.151 1.11213 16.2791C1.8921 16.7061 2.71541 17.005 3.53871 17.2185C7.91522 18.4142 12.855 17.5174 16.1049 14.3148C18.7048 11.7953 19.5715 8.29376 19.5715 4.83488C19.5715 4.70678 19.7448 4.62137 19.8315 4.53597C20.4814 4.02354 21.0447 3.42571 21.5214 2.78518C21.6514 2.65707 21.6081 2.48626 21.6081 2.44356C21.7381 2.40086 21.7381 2.40086 21.6514 2.44356Z" fill="white"/>
</svg>
