<svg width="21" height="17" viewBox="0 0 21 17" fill="none" xmlns="http://www.w3.org/2000/svg">
<path d="M20.4304 1.98256C19.7768 2.26437 19.0823 2.42541 18.3878 2.54618C18.7147 2.50592 19.2049 1.90204 19.4091 1.66049C19.6951 1.29816 19.9402 0.895576 20.1036 0.452731C20.1036 0.412472 20.1445 0.372214 20.1036 0.331955C20.0628 0.331955 20.0219 0.331955 19.9811 0.331955C19.2049 0.734542 18.4287 1.01635 17.5708 1.2579C17.4891 1.2579 17.4482 1.25791 17.4074 1.21765C17.3257 1.13713 17.2848 1.05661 17.2031 1.01635C16.8354 0.734542 16.4678 0.49299 16.0184 0.291696C15.4465 0.0501439 14.8337 -0.030373 14.2209 0.00988568C13.6081 0.0501444 13.0362 0.211179 12.5051 0.49299C11.974 0.7748 11.4838 1.13713 11.1161 1.62023C10.7076 2.10334 10.4216 2.66696 10.2991 3.23058C10.1765 3.7942 10.1765 4.35782 10.2582 4.9617C10.2582 5.04222 10.2582 5.08248 10.1765 5.04222C6.86749 4.55912 4.08954 3.39162 1.84266 0.855318C1.76096 0.734542 1.67926 0.734542 1.59755 0.855318C0.617096 2.30463 1.10732 4.63964 2.33289 5.76688C2.4963 5.92791 2.65971 6.08895 2.86397 6.20972C2.78227 6.20972 1.96522 6.12921 1.27073 5.76688C1.18903 5.68636 1.10732 5.72662 1.10732 5.8474C1.10732 6.00843 1.10732 6.12921 1.14818 6.3305C1.35244 7.77981 2.37374 9.14861 3.76272 9.67197C3.92613 9.75249 4.13039 9.79275 4.2938 9.83301C3.96698 9.91352 3.64016 9.95378 2.70056 9.87327C2.57801 9.83301 2.53715 9.91352 2.578 10.0343C3.27249 11.8862 4.78403 12.4498 5.88704 12.7719C6.05045 12.8122 6.173 12.8121 6.33641 12.8524C6.33641 12.8524 6.33641 12.8524 6.29556 12.8927C5.92789 13.4563 4.62062 13.8589 4.04869 14.0602C2.94568 14.4225 1.76096 14.6238 0.617096 14.503C0.412835 14.4628 0.412835 14.4628 0.331131 14.503C0.290278 14.5433 0.33113 14.5835 0.371983 14.6238C0.617096 14.7848 0.86221 14.9056 1.06647 15.0264C1.80181 15.429 2.57801 15.7108 3.3542 15.9121C7.48028 17.0393 12.1374 16.1939 15.2014 13.1745C17.6525 10.7992 18.4695 7.498 18.4695 4.23705C18.4695 4.11627 18.6329 4.03575 18.7146 3.95524C19.3274 3.47213 19.8585 2.90851 20.3079 2.30463C20.4304 2.18385 20.3896 2.02282 20.3896 1.98256C20.5121 1.9423 20.5121 1.9423 20.4304 1.98256Z" fill="#2B98D0"/>
</svg>
